<?xml version="1.0" encoding="UTF-8" ?>
<svg version="1.1" width="76" height="42" xmlns="http://www.w3.org/2000/svg" shape-rendering="crispEdges">
<rect x="22" y="0" width="1" height="1" fill="#EEC39A" />
<rect x="23" y="0" width="1" height="1" fill="#EEC39A" />
<rect x="24" y="0" width="1" height="1" fill="#EEC39A" />
<rect x="25" y="0" width="1" height="1" fill="#EEC39A" />
<rect x="26" y="0" width="1" height="1" fill="#EEC39A" />
<rect x="27" y="0" width="1" height="1" fill="#EEC39A" />
<rect x="28" y="0" width="1" height="1" fill="#EEC39A" />
<rect x="29" y="0" width="1" height="1" fill="#EEC39A" />
<rect x="30" y="0" width="1" height="1" fill="#EEC39A" />
<rect x="31" y="0" width="1" height="1" fill="#EEC39A" />
<rect x="32" y="0" width="1" height="1" fill="#EEC39A" />
<rect x="33" y="0" width="1" height="1" fill="#EEC39A" />
<rect x="34" y="0" width="1" height="1" fill="#EEC39A" />
<rect x="35" y="0" width="1" height="1" fill="#EEC39A" />
<rect x="36" y="0" width="1" height="1" fill="#EEC39A" />
<rect x="37" y="0" width="1" height="1" fill="#EEC39A" />
<rect x="38" y="0" width="1" height="1" fill="#EEC39A" />
<rect x="39" y="0" width="1" height="1" fill="#EEC39A" />
<rect x="40" y="0" width="1" height="1" fill="#EEC39A" />
<rect x="41" y="0" width="1" height="1" fill="#EEC39A" />
<rect x="42" y="0" width="1" height="1" fill="#EEC39A" />
<rect x="43" y="0" width="1" height="1" fill="#EEC39A" />
<rect x="44" y="0" width="1" height="1" fill="#EEC39A" />
<rect x="45" y="0" width="1" height="1" fill="#EEC39A" />
<rect x="46" y="0" width="1" height="1" fill="#EEC39A" />
<rect x="47" y="0" width="1" height="1" fill="#EEC39A" />
<rect x="48" y="0" width="1" height="1" fill="#EEC39A" />
<rect x="49" y="0" width="1" height="1" fill="#EEC39A" />
<rect x="50" y="0" width="1" height="1" fill="#EEC39A" />
<rect x="51" y="0" width="1" height="1" fill="#EEC39A" />
<rect x="52" y="0" width="1" height="1" fill="#EEC39A" />
<rect x="53" y="0" width="1" height="1" fill="#EEC39A" />
<rect x="54" y="0" width="1" height="1" fill="#EEC39A" />
<rect x="55" y="0" width="1" height="1" fill="#EEC39A" />
<rect x="56" y="0" width="1" height="1" fill="#EEC39A" />
<rect x="57" y="0" width="1" height="1" fill="#EEC39A" />
<rect x="58" y="0" width="1" height="1" fill="#EEC39A" />
<rect x="59" y="0" width="1" height="1" fill="#EEC39A" />
<rect x="60" y="0" width="1" height="1" fill="#EEC39A" />
<rect x="61" y="0" width="1" height="1" fill="#EEC39A" />
<rect x="62" y="0" width="1" height="1" fill="#EEC39A" />
<rect x="63" y="0" width="1" height="1" fill="#EEC39A" />
<rect x="64" y="0" width="1" height="1" fill="#EEC39A" />
<rect x="65" y="0" width="1" height="1" fill="#EEC39A" />
<rect x="66" y="0" width="1" height="1" fill="#EEC39A" />
<rect x="67" y="0" width="1" height="1" fill="#EEC39A" />
<rect x="68" y="0" width="1" height="1" fill="#EEC39A" />
<rect x="69" y="0" width="1" height="1" fill="#EEC39A" />
<rect x="70" y="0" width="1" height="1" fill="#EEC39A" />
<rect x="71" y="0" width="1" height="1" fill="#EEC39A" />
<rect x="72" y="0" width="1" height="1" fill="#EEC39A" />
<rect x="73" y="0" width="1" height="1" fill="#EEC39A" />
<rect x="74" y="0" width="1" height="1" fill="#EEC39A" />
<rect x="75" y="0" width="1" height="1" fill="#663931" />
<rect x="21" y="1" width="1" height="1" fill="#EEC39A" />
<rect x="22" y="1" width="1" height="1" fill="#EEC39A" />
<rect x="75" y="1" width="1" height="1" fill="#663931" />
<rect x="19" y="2" width="1" height="1" fill="#EEC39A" />
<rect x="20" y="2" width="1" height="1" fill="#EEC39A" />
<rect x="74" y="2" width="1" height="1" fill="#EEC39A" />
<rect x="75" y="2" width="1" height="1" fill="#663931" />
<rect x="17" y="3" width="1" height="1" fill="#EEC39A" />
<rect x="18" y="3" width="1" height="1" fill="#EEC39A" />
<rect x="72" y="3" width="1" height="1" fill="#EEC39A" />
<rect x="73" y="3" width="1" height="1" fill="#EEC39A" />
<rect x="75" y="3" width="1" height="1" fill="#663931" />
<rect x="15" y="4" width="1" height="1" fill="#EEC39A" />
<rect x="16" y="4" width="1" height="1" fill="#EEC39A" />
<rect x="71" y="4" width="1" height="1" fill="#EEC39A" />
<rect x="72" y="4" width="1" height="1" fill="#663931" />
<rect x="73" y="4" width="1" height="1" fill="#663931" />
<rect x="74" y="4" width="1" height="1" fill="#663931" />
<rect x="75" y="4" width="1" height="1" fill="#663931" />
<rect x="13" y="5" width="1" height="1" fill="#EEC39A" />
<rect x="14" y="5" width="1" height="1" fill="#EEC39A" />
<rect x="69" y="5" width="1" height="1" fill="#EEC39A" />
<rect x="70" y="5" width="1" height="1" fill="#EEC39A" />
<rect x="71" y="5" width="1" height="1" fill="#663931" />
<rect x="72" y="5" width="1" height="1" fill="#663931" />
<rect x="73" y="5" width="1" height="1" fill="#663931" />
<rect x="74" y="5" width="1" height="1" fill="#663931" />
<rect x="75" y="5" width="1" height="1" fill="#663931" />
<rect x="12" y="6" width="1" height="1" fill="#EEC39A" />
<rect x="68" y="6" width="1" height="1" fill="#EEC39A" />
<rect x="69" y="6" width="1" height="1" fill="#663931" />
<rect x="70" y="6" width="1" height="1" fill="#663931" />
<rect x="71" y="6" width="1" height="1" fill="#663931" />
<rect x="72" y="6" width="1" height="1" fill="#663931" />
<rect x="73" y="6" width="1" height="1" fill="#663931" />
<rect x="74" y="6" width="1" height="1" fill="#663931" />
<rect x="75" y="6" width="1" height="1" fill="#663931" />
<rect x="10" y="7" width="1" height="1" fill="#EEC39A" />
<rect x="11" y="7" width="1" height="1" fill="#EEC39A" />
<rect x="66" y="7" width="1" height="1" fill="#EEC39A" />
<rect x="67" y="7" width="1" height="1" fill="#EEC39A" />
<rect x="68" y="7" width="1" height="1" fill="#663931" />
<rect x="69" y="7" width="1" height="1" fill="#663931" />
<rect x="70" y="7" width="1" height="1" fill="#663931" />
<rect x="71" y="7" width="1" height="1" fill="#663931" />
<rect x="72" y="7" width="1" height="1" fill="#663931" />
<rect x="73" y="7" width="1" height="1" fill="#663931" />
<rect x="74" y="7" width="1" height="1" fill="#663931" />
<rect x="75" y="7" width="1" height="1" fill="#663931" />
<rect x="8" y="8" width="1" height="1" fill="#EEC39A" />
<rect x="9" y="8" width="1" height="1" fill="#EEC39A" />
<rect x="64" y="8" width="1" height="1" fill="#EEC39A" />
<rect x="65" y="8" width="1" height="1" fill="#EEC39A" />
<rect x="67" y="8" width="1" height="1" fill="#663931" />
<rect x="68" y="8" width="1" height="1" fill="#663931" />
<rect x="69" y="8" width="1" height="1" fill="#663931" />
<rect x="70" y="8" width="1" height="1" fill="#663931" />
<rect x="71" y="8" width="1" height="1" fill="#663931" />
<rect x="72" y="8" width="1" height="1" fill="#663931" />
<rect x="73" y="8" width="1" height="1" fill="#663931" />
<rect x="74" y="8" width="1" height="1" fill="#663931" />
<rect x="75" y="8" width="1" height="1" fill="#663931" />
<rect x="6" y="9" width="1" height="1" fill="#EEC39A" />
<rect x="7" y="9" width="1" height="1" fill="#EEC39A" />
<rect x="63" y="9" width="1" height="1" fill="#EEC39A" />
<rect x="65" y="9" width="1" height="1" fill="#663931" />
<rect x="66" y="9" width="1" height="1" fill="#663931" />
<rect x="67" y="9" width="1" height="1" fill="#663931" />
<rect x="68" y="9" width="1" height="1" fill="#663931" />
<rect x="69" y="9" width="1" height="1" fill="#663931" />
<rect x="70" y="9" width="1" height="1" fill="#663931" />
<rect x="71" y="9" width="1" height="1" fill="#663931" />
<rect x="72" y="9" width="1" height="1" fill="#663931" />
<rect x="73" y="9" width="1" height="1" fill="#663931" />
<rect x="74" y="9" width="1" height="1" fill="#663931" />
<rect x="75" y="9" width="1" height="1" fill="#663931" />
<rect x="4" y="10" width="1" height="1" fill="#EEC39A" />
<rect x="5" y="10" width="1" height="1" fill="#EEC39A" />
<rect x="61" y="10" width="1" height="1" fill="#EEC39A" />
<rect x="62" y="10" width="1" height="1" fill="#EEC39A" />
<rect x="64" y="10" width="1" height="1" fill="#663931" />
<rect x="65" y="10" width="1" height="1" fill="#663931" />
<rect x="66" y="10" width="1" height="1" fill="#663931" />
<rect x="67" y="10" width="1" height="1" fill="#663931" />
<rect x="68" y="10" width="1" height="1" fill="#663931" />
<rect x="69" y="10" width="1" height="1" fill="#663931" />
<rect x="70" y="10" width="1" height="1" fill="#663931" />
<rect x="71" y="10" width="1" height="1" fill="#663931" />
<rect x="72" y="10" width="1" height="1" fill="#663931" />
<rect x="73" y="10" width="1" height="1" fill="#663931" />
<rect x="74" y="10" width="1" height="1" fill="#663931" />
<rect x="75" y="10" width="1" height="1" fill="#663931" />
<rect x="1" y="11" width="1" height="1" fill="#EEC39A" />
<rect x="2" y="11" width="1" height="1" fill="#EEC39A" />
<rect x="3" y="11" width="1" height="1" fill="#EEC39A" />
<rect x="4" y="11" width="1" height="1" fill="#EEC39A" />
<rect x="5" y="11" width="1" height="1" fill="#EEC39A" />
<rect x="6" y="11" width="1" height="1" fill="#EEC39A" />
<rect x="7" y="11" width="1" height="1" fill="#EEC39A" />
<rect x="8" y="11" width="1" height="1" fill="#EEC39A" />
<rect x="9" y="11" width="1" height="1" fill="#EEC39A" />
<rect x="10" y="11" width="1" height="1" fill="#EEC39A" />
<rect x="11" y="11" width="1" height="1" fill="#EEC39A" />
<rect x="12" y="11" width="1" height="1" fill="#EEC39A" />
<rect x="13" y="11" width="1" height="1" fill="#EEC39A" />
<rect x="14" y="11" width="1" height="1" fill="#EEC39A" />
<rect x="15" y="11" width="1" height="1" fill="#EEC39A" />
<rect x="16" y="11" width="1" height="1" fill="#EEC39A" />
<rect x="17" y="11" width="1" height="1" fill="#EEC39A" />
<rect x="18" y="11" width="1" height="1" fill="#EEC39A" />
<rect x="19" y="11" width="1" height="1" fill="#EEC39A" />
<rect x="20" y="11" width="1" height="1" fill="#EEC39A" />
<rect x="21" y="11" width="1" height="1" fill="#EEC39A" />
<rect x="22" y="11" width="1" height="1" fill="#EEC39A" />
<rect x="23" y="11" width="1" height="1" fill="#EEC39A" />
<rect x="24" y="11" width="1" height="1" fill="#EEC39A" />
<rect x="25" y="11" width="1" height="1" fill="#EEC39A" />
<rect x="26" y="11" width="1" height="1" fill="#EEC39A" />
<rect x="27" y="11" width="1" height="1" fill="#EEC39A" />
<rect x="28" y="11" width="1" height="1" fill="#EEC39A" />
<rect x="29" y="11" width="1" height="1" fill="#EEC39A" />
<rect x="30" y="11" width="1" height="1" fill="#EEC39A" />
<rect x="31" y="11" width="1" height="1" fill="#EEC39A" />
<rect x="32" y="11" width="1" height="1" fill="#EEC39A" />
<rect x="33" y="11" width="1" height="1" fill="#EEC39A" />
<rect x="34" y="11" width="1" height="1" fill="#EEC39A" />
<rect x="35" y="11" width="1" height="1" fill="#EEC39A" />
<rect x="36" y="11" width="1" height="1" fill="#EEC39A" />
<rect x="37" y="11" width="1" height="1" fill="#EEC39A" />
<rect x="38" y="11" width="1" height="1" fill="#EEC39A" />
<rect x="39" y="11" width="1" height="1" fill="#EEC39A" />
<rect x="40" y="11" width="1" height="1" fill="#EEC39A" />
<rect x="41" y="11" width="1" height="1" fill="#EEC39A" />
<rect x="42" y="11" width="1" height="1" fill="#EEC39A" />
<rect x="43" y="11" width="1" height="1" fill="#EEC39A" />
<rect x="44" y="11" width="1" height="1" fill="#EEC39A" />
<rect x="45" y="11" width="1" height="1" fill="#EEC39A" />
<rect x="46" y="11" width="1" height="1" fill="#EEC39A" />
<rect x="47" y="11" width="1" height="1" fill="#EEC39A" />
<rect x="48" y="11" width="1" height="1" fill="#EEC39A" />
<rect x="49" y="11" width="1" height="1" fill="#EEC39A" />
<rect x="50" y="11" width="1" height="1" fill="#EEC39A" />
<rect x="51" y="11" width="1" height="1" fill="#EEC39A" />
<rect x="52" y="11" width="1" height="1" fill="#EEC39A" />
<rect x="53" y="11" width="1" height="1" fill="#EEC39A" />
<rect x="54" y="11" width="1" height="1" fill="#EEC39A" />
<rect x="55" y="11" width="1" height="1" fill="#EEC39A" />
<rect x="56" y="11" width="1" height="1" fill="#EEC39A" />
<rect x="57" y="11" width="1" height="1" fill="#EEC39A" />
<rect x="58" y="11" width="1" height="1" fill="#EEC39A" />
<rect x="59" y="11" width="1" height="1" fill="#EEC39A" />
<rect x="60" y="11" width="1" height="1" fill="#EEC39A" />
<rect x="62" y="11" width="1" height="1" fill="#663931" />
<rect x="63" y="11" width="1" height="1" fill="#663931" />
<rect x="64" y="11" width="1" height="1" fill="#663931" />
<rect x="65" y="11" width="1" height="1" fill="#663931" />
<rect x="66" y="11" width="1" height="1" fill="#663931" />
<rect x="67" y="11" width="1" height="1" fill="#663931" />
<rect x="68" y="11" width="1" height="1" fill="#663931" />
<rect x="69" y="11" width="1" height="1" fill="#663931" />
<rect x="70" y="11" width="1" height="1" fill="#663931" />
<rect x="71" y="11" width="1" height="1" fill="#663931" />
<rect x="72" y="11" width="1" height="1" fill="#663931" />
<rect x="73" y="11" width="1" height="1" fill="#663931" />
<rect x="74" y="11" width="1" height="1" fill="#663931" />
<rect x="75" y="11" width="1" height="1" fill="#663931" />
<rect x="1" y="12" width="1" height="1" fill="#EEC39A" />
<rect x="58" y="12" width="1" height="1" fill="#EEC39A" />
<rect x="59" y="12" width="1" height="1" fill="#EEC39A" />
<rect x="62" y="12" width="1" height="1" fill="#663931" />
<rect x="63" y="12" width="1" height="1" fill="#663931" />
<rect x="64" y="12" width="1" height="1" fill="#663931" />
<rect x="65" y="12" width="1" height="1" fill="#663931" />
<rect x="66" y="12" width="1" height="1" fill="#663931" />
<rect x="67" y="12" width="1" height="1" fill="#663931" />
<rect x="68" y="12" width="1" height="1" fill="#663931" />
<rect x="69" y="12" width="1" height="1" fill="#663931" />
<rect x="70" y="12" width="1" height="1" fill="#663931" />
<rect x="71" y="12" width="1" height="1" fill="#663931" />
<rect x="72" y="12" width="1" height="1" fill="#663931" />
<rect x="73" y="12" width="1" height="1" fill="#663931" />
<rect x="74" y="12" width="1" height="1" fill="#663931" />
<rect x="75" y="12" width="1" height="1" fill="#663931" />
<rect x="1" y="13" width="1" height="1" fill="#EEC39A" />
<rect x="57" y="13" width="1" height="1" fill="#EEC39A" />
<rect x="59" y="13" width="1" height="1" fill="#EEC39A" />
<rect x="60" y="13" width="1" height="1" fill="#663931" />
<rect x="61" y="13" width="1" height="1" fill="#663931" />
<rect x="62" y="13" width="1" height="1" fill="#663931" />
<rect x="63" y="13" width="1" height="1" fill="#663931" />
<rect x="64" y="13" width="1" height="1" fill="#663931" />
<rect x="65" y="13" width="1" height="1" fill="#663931" />
<rect x="66" y="13" width="1" height="1" fill="#663931" />
<rect x="67" y="13" width="1" height="1" fill="#663931" />
<rect x="68" y="13" width="1" height="1" fill="#663931" />
<rect x="69" y="13" width="1" height="1" fill="#663931" />
<rect x="70" y="13" width="1" height="1" fill="#663931" />
<rect x="71" y="13" width="1" height="1" fill="#663931" />
<rect x="72" y="13" width="1" height="1" fill="#663931" />
<rect x="73" y="13" width="1" height="1" fill="#663931" />
<rect x="74" y="13" width="1" height="1" fill="#663931" />
<rect x="75" y="13" width="1" height="1" fill="#663931" />
<rect x="1" y="14" width="1" height="1" fill="#EEC39A" />
<rect x="59" y="14" width="1" height="1" fill="#EEC39A" />
<rect x="60" y="14" width="1" height="1" fill="#663931" />
<rect x="61" y="14" width="1" height="1" fill="#663931" />
<rect x="62" y="14" width="1" height="1" fill="#663931" />
<rect x="63" y="14" width="1" height="1" fill="#663931" />
<rect x="64" y="14" width="1" height="1" fill="#663931" />
<rect x="65" y="14" width="1" height="1" fill="#663931" />
<rect x="66" y="14" width="1" height="1" fill="#663931" />
<rect x="67" y="14" width="1" height="1" fill="#663931" />
<rect x="68" y="14" width="1" height="1" fill="#663931" />
<rect x="69" y="14" width="1" height="1" fill="#663931" />
<rect x="70" y="14" width="1" height="1" fill="#663931" />
<rect x="71" y="14" width="1" height="1" fill="#663931" />
<rect x="72" y="14" width="1" height="1" fill="#663931" />
<rect x="73" y="14" width="1" height="1" fill="#663931" />
<rect x="74" y="14" width="1" height="1" fill="#663931" />
<rect x="75" y="14" width="1" height="1" fill="#663931" />
<rect x="1" y="15" width="1" height="1" fill="#EEC39A" />
<rect x="59" y="15" width="1" height="1" fill="#EEC39A" />
<rect x="60" y="15" width="1" height="1" fill="#663931" />
<rect x="61" y="15" width="1" height="1" fill="#663931" />
<rect x="62" y="15" width="1" height="1" fill="#663931" />
<rect x="63" y="15" width="1" height="1" fill="#663931" />
<rect x="64" y="15" width="1" height="1" fill="#663931" />
<rect x="65" y="15" width="1" height="1" fill="#663931" />
<rect x="66" y="15" width="1" height="1" fill="#663931" />
<rect x="67" y="15" width="1" height="1" fill="#663931" />
<rect x="68" y="15" width="1" height="1" fill="#663931" />
<rect x="69" y="15" width="1" height="1" fill="#663931" />
<rect x="70" y="15" width="1" height="1" fill="#663931" />
<rect x="71" y="15" width="1" height="1" fill="#663931" />
<rect x="72" y="15" width="1" height="1" fill="#663931" />
<rect x="73" y="15" width="1" height="1" fill="#663931" />
<rect x="74" y="15" width="1" height="1" fill="#663931" />
<rect x="75" y="15" width="1" height="1" fill="#663931" />
<rect x="1" y="16" width="1" height="1" fill="#EEC39A" />
<rect x="59" y="16" width="1" height="1" fill="#EEC39A" />
<rect x="60" y="16" width="1" height="1" fill="#663931" />
<rect x="61" y="16" width="1" height="1" fill="#663931" />
<rect x="62" y="16" width="1" height="1" fill="#663931" />
<rect x="63" y="16" width="1" height="1" fill="#663931" />
<rect x="64" y="16" width="1" height="1" fill="#663931" />
<rect x="65" y="16" width="1" height="1" fill="#663931" />
<rect x="66" y="16" width="1" height="1" fill="#663931" />
<rect x="67" y="16" width="1" height="1" fill="#663931" />
<rect x="68" y="16" width="1" height="1" fill="#663931" />
<rect x="69" y="16" width="1" height="1" fill="#663931" />
<rect x="70" y="16" width="1" height="1" fill="#663931" />
<rect x="71" y="16" width="1" height="1" fill="#663931" />
<rect x="72" y="16" width="1" height="1" fill="#663931" />
<rect x="73" y="16" width="1" height="1" fill="#663931" />
<rect x="74" y="16" width="1" height="1" fill="#663931" />
<rect x="75" y="16" width="1" height="1" fill="#663931" />
<rect x="1" y="17" width="1" height="1" fill="#EEC39A" />
<rect x="59" y="17" width="1" height="1" fill="#EEC39A" />
<rect x="60" y="17" width="1" height="1" fill="#663931" />
<rect x="61" y="17" width="1" height="1" fill="#663931" />
<rect x="62" y="17" width="1" height="1" fill="#663931" />
<rect x="63" y="17" width="1" height="1" fill="#663931" />
<rect x="64" y="17" width="1" height="1" fill="#663931" />
<rect x="65" y="17" width="1" height="1" fill="#663931" />
<rect x="66" y="17" width="1" height="1" fill="#663931" />
<rect x="67" y="17" width="1" height="1" fill="#663931" />
<rect x="68" y="17" width="1" height="1" fill="#663931" />
<rect x="69" y="17" width="1" height="1" fill="#663931" />
<rect x="70" y="17" width="1" height="1" fill="#663931" />
<rect x="71" y="17" width="1" height="1" fill="#663931" />
<rect x="72" y="17" width="1" height="1" fill="#663931" />
<rect x="73" y="17" width="1" height="1" fill="#663931" />
<rect x="74" y="17" width="1" height="1" fill="#663931" />
<rect x="75" y="17" width="1" height="1" fill="#663931" />
<rect x="1" y="18" width="1" height="1" fill="#EEC39A" />
<rect x="59" y="18" width="1" height="1" fill="#EEC39A" />
<rect x="60" y="18" width="1" height="1" fill="#663931" />
<rect x="61" y="18" width="1" height="1" fill="#663931" />
<rect x="62" y="18" width="1" height="1" fill="#663931" />
<rect x="63" y="18" width="1" height="1" fill="#663931" />
<rect x="64" y="18" width="1" height="1" fill="#663931" />
<rect x="65" y="18" width="1" height="1" fill="#663931" />
<rect x="66" y="18" width="1" height="1" fill="#663931" />
<rect x="67" y="18" width="1" height="1" fill="#663931" />
<rect x="68" y="18" width="1" height="1" fill="#663931" />
<rect x="69" y="18" width="1" height="1" fill="#663931" />
<rect x="70" y="18" width="1" height="1" fill="#663931" />
<rect x="71" y="18" width="1" height="1" fill="#663931" />
<rect x="72" y="18" width="1" height="1" fill="#663931" />
<rect x="73" y="18" width="1" height="1" fill="#663931" />
<rect x="74" y="18" width="1" height="1" fill="#663931" />
<rect x="75" y="18" width="1" height="1" fill="#663931" />
<rect x="1" y="19" width="1" height="1" fill="#EEC39A" />
<rect x="59" y="19" width="1" height="1" fill="#EEC39A" />
<rect x="60" y="19" width="1" height="1" fill="#663931" />
<rect x="61" y="19" width="1" height="1" fill="#663931" />
<rect x="62" y="19" width="1" height="1" fill="#663931" />
<rect x="63" y="19" width="1" height="1" fill="#663931" />
<rect x="64" y="19" width="1" height="1" fill="#663931" />
<rect x="65" y="19" width="1" height="1" fill="#663931" />
<rect x="66" y="19" width="1" height="1" fill="#663931" />
<rect x="67" y="19" width="1" height="1" fill="#663931" />
<rect x="68" y="19" width="1" height="1" fill="#663931" />
<rect x="69" y="19" width="1" height="1" fill="#663931" />
<rect x="70" y="19" width="1" height="1" fill="#663931" />
<rect x="71" y="19" width="1" height="1" fill="#663931" />
<rect x="72" y="19" width="1" height="1" fill="#663931" />
<rect x="73" y="19" width="1" height="1" fill="#663931" />
<rect x="74" y="19" width="1" height="1" fill="#663931" />
<rect x="75" y="19" width="1" height="1" fill="#663931" />
<rect x="1" y="20" width="1" height="1" fill="#EEC39A" />
<rect x="59" y="20" width="1" height="1" fill="#EEC39A" />
<rect x="60" y="20" width="1" height="1" fill="#663931" />
<rect x="61" y="20" width="1" height="1" fill="#663931" />
<rect x="62" y="20" width="1" height="1" fill="#663931" />
<rect x="63" y="20" width="1" height="1" fill="#663931" />
<rect x="64" y="20" width="1" height="1" fill="#663931" />
<rect x="65" y="20" width="1" height="1" fill="#663931" />
<rect x="66" y="20" width="1" height="1" fill="#663931" />
<rect x="67" y="20" width="1" height="1" fill="#663931" />
<rect x="68" y="20" width="1" height="1" fill="#663931" />
<rect x="69" y="20" width="1" height="1" fill="#663931" />
<rect x="70" y="20" width="1" height="1" fill="#663931" />
<rect x="71" y="20" width="1" height="1" fill="#663931" />
<rect x="72" y="20" width="1" height="1" fill="#663931" />
<rect x="73" y="20" width="1" height="1" fill="#663931" />
<rect x="74" y="20" width="1" height="1" fill="#663931" />
<rect x="75" y="20" width="1" height="1" fill="#663931" />
<rect x="1" y="21" width="1" height="1" fill="#EEC39A" />
<rect x="59" y="21" width="1" height="1" fill="#EEC39A" />
<rect x="60" y="21" width="1" height="1" fill="#663931" />
<rect x="61" y="21" width="1" height="1" fill="#663931" />
<rect x="62" y="21" width="1" height="1" fill="#663931" />
<rect x="63" y="21" width="1" height="1" fill="#663931" />
<rect x="64" y="21" width="1" height="1" fill="#663931" />
<rect x="65" y="21" width="1" height="1" fill="#663931" />
<rect x="66" y="21" width="1" height="1" fill="#663931" />
<rect x="67" y="21" width="1" height="1" fill="#663931" />
<rect x="68" y="21" width="1" height="1" fill="#663931" />
<rect x="69" y="21" width="1" height="1" fill="#663931" />
<rect x="70" y="21" width="1" height="1" fill="#663931" />
<rect x="71" y="21" width="1" height="1" fill="#663931" />
<rect x="72" y="21" width="1" height="1" fill="#663931" />
<rect x="73" y="21" width="1" height="1" fill="#663931" />
<rect x="74" y="21" width="1" height="1" fill="#663931" />
<rect x="75" y="21" width="1" height="1" fill="#663931" />
<rect x="1" y="22" width="1" height="1" fill="#EEC39A" />
<rect x="59" y="22" width="1" height="1" fill="#EEC39A" />
<rect x="60" y="22" width="1" height="1" fill="#663931" />
<rect x="61" y="22" width="1" height="1" fill="#663931" />
<rect x="62" y="22" width="1" height="1" fill="#663931" />
<rect x="63" y="22" width="1" height="1" fill="#663931" />
<rect x="64" y="22" width="1" height="1" fill="#663931" />
<rect x="65" y="22" width="1" height="1" fill="#663931" />
<rect x="66" y="22" width="1" height="1" fill="#663931" />
<rect x="67" y="22" width="1" height="1" fill="#663931" />
<rect x="68" y="22" width="1" height="1" fill="#663931" />
<rect x="69" y="22" width="1" height="1" fill="#663931" />
<rect x="70" y="22" width="1" height="1" fill="#663931" />
<rect x="71" y="22" width="1" height="1" fill="#663931" />
<rect x="72" y="22" width="1" height="1" fill="#663931" />
<rect x="73" y="22" width="1" height="1" fill="#663931" />
<rect x="74" y="22" width="1" height="1" fill="#663931" />
<rect x="75" y="22" width="1" height="1" fill="#663931" />
<rect x="1" y="23" width="1" height="1" fill="#EEC39A" />
<rect x="59" y="23" width="1" height="1" fill="#EEC39A" />
<rect x="60" y="23" width="1" height="1" fill="#663931" />
<rect x="61" y="23" width="1" height="1" fill="#663931" />
<rect x="62" y="23" width="1" height="1" fill="#663931" />
<rect x="63" y="23" width="1" height="1" fill="#663931" />
<rect x="64" y="23" width="1" height="1" fill="#663931" />
<rect x="65" y="23" width="1" height="1" fill="#663931" />
<rect x="66" y="23" width="1" height="1" fill="#663931" />
<rect x="67" y="23" width="1" height="1" fill="#663931" />
<rect x="68" y="23" width="1" height="1" fill="#663931" />
<rect x="69" y="23" width="1" height="1" fill="#663931" />
<rect x="70" y="23" width="1" height="1" fill="#663931" />
<rect x="71" y="23" width="1" height="1" fill="#663931" />
<rect x="72" y="23" width="1" height="1" fill="#663931" />
<rect x="73" y="23" width="1" height="1" fill="#663931" />
<rect x="74" y="23" width="1" height="1" fill="#663931" />
<rect x="75" y="23" width="1" height="1" fill="#663931" />
<rect x="1" y="24" width="1" height="1" fill="#EEC39A" />
<rect x="59" y="24" width="1" height="1" fill="#EEC39A" />
<rect x="60" y="24" width="1" height="1" fill="#663931" />
<rect x="61" y="24" width="1" height="1" fill="#663931" />
<rect x="62" y="24" width="1" height="1" fill="#663931" />
<rect x="63" y="24" width="1" height="1" fill="#663931" />
<rect x="64" y="24" width="1" height="1" fill="#663931" />
<rect x="65" y="24" width="1" height="1" fill="#663931" />
<rect x="66" y="24" width="1" height="1" fill="#663931" />
<rect x="67" y="24" width="1" height="1" fill="#663931" />
<rect x="68" y="24" width="1" height="1" fill="#663931" />
<rect x="69" y="24" width="1" height="1" fill="#663931" />
<rect x="70" y="24" width="1" height="1" fill="#663931" />
<rect x="71" y="24" width="1" height="1" fill="#663931" />
<rect x="72" y="24" width="1" height="1" fill="#663931" />
<rect x="73" y="24" width="1" height="1" fill="#663931" />
<rect x="74" y="24" width="1" height="1" fill="#663931" />
<rect x="75" y="24" width="1" height="1" fill="#663931" />
<rect x="1" y="25" width="1" height="1" fill="#EEC39A" />
<rect x="59" y="25" width="1" height="1" fill="#EEC39A" />
<rect x="60" y="25" width="1" height="1" fill="#663931" />
<rect x="61" y="25" width="1" height="1" fill="#663931" />
<rect x="62" y="25" width="1" height="1" fill="#663931" />
<rect x="63" y="25" width="1" height="1" fill="#663931" />
<rect x="64" y="25" width="1" height="1" fill="#663931" />
<rect x="65" y="25" width="1" height="1" fill="#663931" />
<rect x="66" y="25" width="1" height="1" fill="#663931" />
<rect x="67" y="25" width="1" height="1" fill="#663931" />
<rect x="68" y="25" width="1" height="1" fill="#663931" />
<rect x="69" y="25" width="1" height="1" fill="#663931" />
<rect x="70" y="25" width="1" height="1" fill="#663931" />
<rect x="71" y="25" width="1" height="1" fill="#663931" />
<rect x="72" y="25" width="1" height="1" fill="#663931" />
<rect x="73" y="25" width="1" height="1" fill="#663931" />
<rect x="74" y="25" width="1" height="1" fill="#663931" />
<rect x="75" y="25" width="1" height="1" fill="#663931" />
<rect x="1" y="26" width="1" height="1" fill="#EEC39A" />
<rect x="59" y="26" width="1" height="1" fill="#EEC39A" />
<rect x="60" y="26" width="1" height="1" fill="#663931" />
<rect x="61" y="26" width="1" height="1" fill="#663931" />
<rect x="62" y="26" width="1" height="1" fill="#663931" />
<rect x="63" y="26" width="1" height="1" fill="#663931" />
<rect x="64" y="26" width="1" height="1" fill="#663931" />
<rect x="65" y="26" width="1" height="1" fill="#663931" />
<rect x="66" y="26" width="1" height="1" fill="#663931" />
<rect x="67" y="26" width="1" height="1" fill="#663931" />
<rect x="68" y="26" width="1" height="1" fill="#663931" />
<rect x="69" y="26" width="1" height="1" fill="#663931" />
<rect x="70" y="26" width="1" height="1" fill="#663931" />
<rect x="71" y="26" width="1" height="1" fill="#663931" />
<rect x="72" y="26" width="1" height="1" fill="#663931" />
<rect x="73" y="26" width="1" height="1" fill="#663931" />
<rect x="74" y="26" width="1" height="1" fill="#663931" />
<rect x="75" y="26" width="1" height="1" fill="#663931" />
<rect x="1" y="27" width="1" height="1" fill="#EEC39A" />
<rect x="59" y="27" width="1" height="1" fill="#EEC39A" />
<rect x="60" y="27" width="1" height="1" fill="#663931" />
<rect x="61" y="27" width="1" height="1" fill="#663931" />
<rect x="62" y="27" width="1" height="1" fill="#663931" />
<rect x="63" y="27" width="1" height="1" fill="#663931" />
<rect x="64" y="27" width="1" height="1" fill="#663931" />
<rect x="65" y="27" width="1" height="1" fill="#663931" />
<rect x="66" y="27" width="1" height="1" fill="#663931" />
<rect x="67" y="27" width="1" height="1" fill="#663931" />
<rect x="68" y="27" width="1" height="1" fill="#663931" />
<rect x="69" y="27" width="1" height="1" fill="#663931" />
<rect x="70" y="27" width="1" height="1" fill="#663931" />
<rect x="71" y="27" width="1" height="1" fill="#663931" />
<rect x="72" y="27" width="1" height="1" fill="#663931" />
<rect x="73" y="27" width="1" height="1" fill="#663931" />
<rect x="74" y="27" width="1" height="1" fill="#663931" />
<rect x="1" y="28" width="1" height="1" fill="#EEC39A" />
<rect x="59" y="28" width="1" height="1" fill="#EEC39A" />
<rect x="60" y="28" width="1" height="1" fill="#663931" />
<rect x="61" y="28" width="1" height="1" fill="#663931" />
<rect x="62" y="28" width="1" height="1" fill="#663931" />
<rect x="63" y="28" width="1" height="1" fill="#663931" />
<rect x="64" y="28" width="1" height="1" fill="#663931" />
<rect x="65" y="28" width="1" height="1" fill="#663931" />
<rect x="66" y="28" width="1" height="1" fill="#663931" />
<rect x="67" y="28" width="1" height="1" fill="#663931" />
<rect x="68" y="28" width="1" height="1" fill="#663931" />
<rect x="69" y="28" width="1" height="1" fill="#663931" />
<rect x="70" y="28" width="1" height="1" fill="#663931" />
<rect x="71" y="28" width="1" height="1" fill="#663931" />
<rect x="72" y="28" width="1" height="1" fill="#663931" />
<rect x="73" y="28" width="1" height="1" fill="#EEC39A" />
<rect x="1" y="29" width="1" height="1" fill="#EEC39A" />
<rect x="59" y="29" width="1" height="1" fill="#EEC39A" />
<rect x="60" y="29" width="1" height="1" fill="#663931" />
<rect x="61" y="29" width="1" height="1" fill="#663931" />
<rect x="62" y="29" width="1" height="1" fill="#663931" />
<rect x="63" y="29" width="1" height="1" fill="#663931" />
<rect x="64" y="29" width="1" height="1" fill="#663931" />
<rect x="65" y="29" width="1" height="1" fill="#663931" />
<rect x="66" y="29" width="1" height="1" fill="#663931" />
<rect x="67" y="29" width="1" height="1" fill="#663931" />
<rect x="68" y="29" width="1" height="1" fill="#663931" />
<rect x="69" y="29" width="1" height="1" fill="#663931" />
<rect x="70" y="29" width="1" height="1" fill="#663931" />
<rect x="71" y="29" width="1" height="1" fill="#663931" />
<rect x="72" y="29" width="1" height="1" fill="#EEC39A" />
<rect x="1" y="30" width="1" height="1" fill="#EEC39A" />
<rect x="59" y="30" width="1" height="1" fill="#EEC39A" />
<rect x="60" y="30" width="1" height="1" fill="#663931" />
<rect x="61" y="30" width="1" height="1" fill="#663931" />
<rect x="62" y="30" width="1" height="1" fill="#663931" />
<rect x="63" y="30" width="1" height="1" fill="#663931" />
<rect x="64" y="30" width="1" height="1" fill="#663931" />
<rect x="65" y="30" width="1" height="1" fill="#663931" />
<rect x="66" y="30" width="1" height="1" fill="#663931" />
<rect x="67" y="30" width="1" height="1" fill="#663931" />
<rect x="68" y="30" width="1" height="1" fill="#663931" />
<rect x="69" y="30" width="1" height="1" fill="#663931" />
<rect x="70" y="30" width="1" height="1" fill="#663931" />
<rect x="71" y="30" width="1" height="1" fill="#EEC39A" />
<rect x="1" y="31" width="1" height="1" fill="#EEC39A" />
<rect x="59" y="31" width="1" height="1" fill="#EEC39A" />
<rect x="60" y="31" width="1" height="1" fill="#663931" />
<rect x="61" y="31" width="1" height="1" fill="#663931" />
<rect x="62" y="31" width="1" height="1" fill="#663931" />
<rect x="63" y="31" width="1" height="1" fill="#663931" />
<rect x="64" y="31" width="1" height="1" fill="#663931" />
<rect x="65" y="31" width="1" height="1" fill="#663931" />
<rect x="66" y="31" width="1" height="1" fill="#663931" />
<rect x="67" y="31" width="1" height="1" fill="#663931" />
<rect x="68" y="31" width="1" height="1" fill="#663931" />
<rect x="69" y="31" width="1" height="1" fill="#663931" />
<rect x="70" y="31" width="1" height="1" fill="#EEC39A" />
<rect x="1" y="32" width="1" height="1" fill="#EEC39A" />
<rect x="59" y="32" width="1" height="1" fill="#EEC39A" />
<rect x="60" y="32" width="1" height="1" fill="#663931" />
<rect x="61" y="32" width="1" height="1" fill="#663931" />
<rect x="62" y="32" width="1" height="1" fill="#663931" />
<rect x="63" y="32" width="1" height="1" fill="#663931" />
<rect x="64" y="32" width="1" height="1" fill="#663931" />
<rect x="65" y="32" width="1" height="1" fill="#663931" />
<rect x="66" y="32" width="1" height="1" fill="#663931" />
<rect x="67" y="32" width="1" height="1" fill="#663931" />
<rect x="68" y="32" width="1" height="1" fill="#663931" />
<rect x="69" y="32" width="1" height="1" fill="#EEC39A" />
<rect x="1" y="33" width="1" height="1" fill="#EEC39A" />
<rect x="59" y="33" width="1" height="1" fill="#EEC39A" />
<rect x="60" y="33" width="1" height="1" fill="#663931" />
<rect x="61" y="33" width="1" height="1" fill="#663931" />
<rect x="62" y="33" width="1" height="1" fill="#663931" />
<rect x="63" y="33" width="1" height="1" fill="#663931" />
<rect x="64" y="33" width="1" height="1" fill="#663931" />
<rect x="65" y="33" width="1" height="1" fill="#663931" />
<rect x="66" y="33" width="1" height="1" fill="#663931" />
<rect x="67" y="33" width="1" height="1" fill="#663931" />
<rect x="68" y="33" width="1" height="1" fill="#EEC39A" />
<rect x="1" y="34" width="1" height="1" fill="#EEC39A" />
<rect x="59" y="34" width="1" height="1" fill="#EEC39A" />
<rect x="60" y="34" width="1" height="1" fill="#663931" />
<rect x="61" y="34" width="1" height="1" fill="#663931" />
<rect x="62" y="34" width="1" height="1" fill="#663931" />
<rect x="63" y="34" width="1" height="1" fill="#663931" />
<rect x="64" y="34" width="1" height="1" fill="#663931" />
<rect x="65" y="34" width="1" height="1" fill="#663931" />
<rect x="66" y="34" width="1" height="1" fill="#EEC39A" />
<rect x="1" y="35" width="1" height="1" fill="#EEC39A" />
<rect x="59" y="35" width="1" height="1" fill="#EEC39A" />
<rect x="60" y="35" width="1" height="1" fill="#663931" />
<rect x="61" y="35" width="1" height="1" fill="#663931" />
<rect x="62" y="35" width="1" height="1" fill="#663931" />
<rect x="63" y="35" width="1" height="1" fill="#663931" />
<rect x="64" y="35" width="1" height="1" fill="#663931" />
<rect x="65" y="35" width="1" height="1" fill="#EEC39A" />
<rect x="1" y="36" width="1" height="1" fill="#EEC39A" />
<rect x="59" y="36" width="1" height="1" fill="#EEC39A" />
<rect x="60" y="36" width="1" height="1" fill="#663931" />
<rect x="61" y="36" width="1" height="1" fill="#663931" />
<rect x="62" y="36" width="1" height="1" fill="#663931" />
<rect x="63" y="36" width="1" height="1" fill="#663931" />
<rect x="64" y="36" width="1" height="1" fill="#EEC39A" />
<rect x="1" y="37" width="1" height="1" fill="#EEC39A" />
<rect x="59" y="37" width="1" height="1" fill="#EEC39A" />
<rect x="60" y="37" width="1" height="1" fill="#663931" />
<rect x="61" y="37" width="1" height="1" fill="#663931" />
<rect x="62" y="37" width="1" height="1" fill="#663931" />
<rect x="63" y="37" width="1" height="1" fill="#EEC39A" />
<rect x="1" y="38" width="1" height="1" fill="#EEC39A" />
<rect x="59" y="38" width="1" height="1" fill="#EEC39A" />
<rect x="60" y="38" width="1" height="1" fill="#663931" />
<rect x="61" y="38" width="1" height="1" fill="#663931" />
<rect x="62" y="38" width="1" height="1" fill="#EEC39A" />
<rect x="1" y="39" width="1" height="1" fill="#EEC39A" />
<rect x="59" y="39" width="1" height="1" fill="#663931" />
<rect x="60" y="39" width="1" height="1" fill="#663931" />
<rect x="61" y="39" width="1" height="1" fill="#EEC39A" />
<rect x="1" y="40" width="1" height="1" fill="#EEC39A" />
<rect x="59" y="40" width="1" height="1" fill="#663931" />
<rect x="60" y="40" width="1" height="1" fill="#663931" />
<rect x="1" y="41" width="1" height="1" fill="#EEC39A" />
<rect x="2" y="41" width="1" height="1" fill="#EEC39A" />
<rect x="3" y="41" width="1" height="1" fill="#EEC39A" />
<rect x="4" y="41" width="1" height="1" fill="#EEC39A" />
<rect x="5" y="41" width="1" height="1" fill="#EEC39A" />
<rect x="6" y="41" width="1" height="1" fill="#EEC39A" />
<rect x="7" y="41" width="1" height="1" fill="#EEC39A" />
<rect x="8" y="41" width="1" height="1" fill="#EEC39A" />
<rect x="9" y="41" width="1" height="1" fill="#EEC39A" />
<rect x="10" y="41" width="1" height="1" fill="#EEC39A" />
<rect x="11" y="41" width="1" height="1" fill="#EEC39A" />
<rect x="12" y="41" width="1" height="1" fill="#EEC39A" />
<rect x="13" y="41" width="1" height="1" fill="#EEC39A" />
<rect x="14" y="41" width="1" height="1" fill="#EEC39A" />
<rect x="15" y="41" width="1" height="1" fill="#EEC39A" />
<rect x="16" y="41" width="1" height="1" fill="#EEC39A" />
<rect x="17" y="41" width="1" height="1" fill="#EEC39A" />
<rect x="18" y="41" width="1" height="1" fill="#EEC39A" />
<rect x="19" y="41" width="1" height="1" fill="#EEC39A" />
<rect x="20" y="41" width="1" height="1" fill="#EEC39A" />
<rect x="21" y="41" width="1" height="1" fill="#EEC39A" />
<rect x="22" y="41" width="1" height="1" fill="#EEC39A" />
<rect x="23" y="41" width="1" height="1" fill="#EEC39A" />
<rect x="24" y="41" width="1" height="1" fill="#EEC39A" />
<rect x="25" y="41" width="1" height="1" fill="#EEC39A" />
<rect x="26" y="41" width="1" height="1" fill="#EEC39A" />
<rect x="27" y="41" width="1" height="1" fill="#EEC39A" />
<rect x="28" y="41" width="1" height="1" fill="#EEC39A" />
<rect x="29" y="41" width="1" height="1" fill="#EEC39A" />
<rect x="30" y="41" width="1" height="1" fill="#EEC39A" />
<rect x="31" y="41" width="1" height="1" fill="#EEC39A" />
<rect x="32" y="41" width="1" height="1" fill="#EEC39A" />
<rect x="33" y="41" width="1" height="1" fill="#EEC39A" />
<rect x="34" y="41" width="1" height="1" fill="#EEC39A" />
<rect x="35" y="41" width="1" height="1" fill="#EEC39A" />
<rect x="36" y="41" width="1" height="1" fill="#EEC39A" />
<rect x="37" y="41" width="1" height="1" fill="#EEC39A" />
<rect x="38" y="41" width="1" height="1" fill="#EEC39A" />
<rect x="39" y="41" width="1" height="1" fill="#EEC39A" />
<rect x="40" y="41" width="1" height="1" fill="#EEC39A" />
<rect x="41" y="41" width="1" height="1" fill="#EEC39A" />
<rect x="42" y="41" width="1" height="1" fill="#EEC39A" />
<rect x="43" y="41" width="1" height="1" fill="#EEC39A" />
<rect x="44" y="41" width="1" height="1" fill="#EEC39A" />
<rect x="45" y="41" width="1" height="1" fill="#EEC39A" />
<rect x="46" y="41" width="1" height="1" fill="#EEC39A" />
<rect x="47" y="41" width="1" height="1" fill="#EEC39A" />
<rect x="48" y="41" width="1" height="1" fill="#EEC39A" />
<rect x="49" y="41" width="1" height="1" fill="#EEC39A" />
<rect x="50" y="41" width="1" height="1" fill="#EEC39A" />
<rect x="51" y="41" width="1" height="1" fill="#EEC39A" />
<rect x="52" y="41" width="1" height="1" fill="#EEC39A" />
<rect x="53" y="41" width="1" height="1" fill="#EEC39A" />
<rect x="54" y="41" width="1" height="1" fill="#EEC39A" />
<rect x="55" y="41" width="1" height="1" fill="#EEC39A" />
<rect x="56" y="41" width="1" height="1" fill="#EEC39A" />
<rect x="57" y="41" width="1" height="1" fill="#EEC39A" />
<rect x="58" y="41" width="1" height="1" fill="#EEC39A" />
<rect x="59" y="41" width="1" height="1" fill="#663931" />
</svg>