<?xml version="1.0" encoding="UTF-8" ?>
<svg version="1.1" width="100" height="100" xmlns="http://www.w3.org/2000/svg" shape-rendering="crispEdges">
<rect x="91" y="21" width="1" height="1" fill="#EEC39A" />
<rect x="37" y="22" width="1" height="1" fill="#EEC39A" />
<rect x="38" y="22" width="1" height="1" fill="#EEC39A" />
<rect x="39" y="22" width="1" height="1" fill="#EEC39A" />
<rect x="40" y="22" width="1" height="1" fill="#EEC39A" />
<rect x="41" y="22" width="1" height="1" fill="#EEC39A" />
<rect x="42" y="22" width="1" height="1" fill="#EEC39A" />
<rect x="43" y="22" width="1" height="1" fill="#EEC39A" />
<rect x="44" y="22" width="1" height="1" fill="#EEC39A" />
<rect x="45" y="22" width="1" height="1" fill="#EEC39A" />
<rect x="46" y="22" width="1" height="1" fill="#EEC39A" />
<rect x="47" y="22" width="1" height="1" fill="#EEC39A" />
<rect x="48" y="22" width="1" height="1" fill="#EEC39A" />
<rect x="49" y="22" width="1" height="1" fill="#EEC39A" />
<rect x="50" y="22" width="1" height="1" fill="#EEC39A" />
<rect x="51" y="22" width="1" height="1" fill="#EEC39A" />
<rect x="52" y="22" width="1" height="1" fill="#EEC39A" />
<rect x="53" y="22" width="1" height="1" fill="#EEC39A" />
<rect x="54" y="22" width="1" height="1" fill="#EEC39A" />
<rect x="55" y="22" width="1" height="1" fill="#EEC39A" />
<rect x="56" y="22" width="1" height="1" fill="#EEC39A" />
<rect x="57" y="22" width="1" height="1" fill="#EEC39A" />
<rect x="58" y="22" width="1" height="1" fill="#EEC39A" />
<rect x="59" y="22" width="1" height="1" fill="#EEC39A" />
<rect x="60" y="22" width="1" height="1" fill="#EEC39A" />
<rect x="61" y="22" width="1" height="1" fill="#EEC39A" />
<rect x="62" y="22" width="1" height="1" fill="#EEC39A" />
<rect x="63" y="22" width="1" height="1" fill="#EEC39A" />
<rect x="64" y="22" width="1" height="1" fill="#EEC39A" />
<rect x="65" y="22" width="1" height="1" fill="#EEC39A" />
<rect x="66" y="22" width="1" height="1" fill="#EEC39A" />
<rect x="67" y="22" width="1" height="1" fill="#EEC39A" />
<rect x="68" y="22" width="1" height="1" fill="#EEC39A" />
<rect x="69" y="22" width="1" height="1" fill="#EEC39A" />
<rect x="70" y="22" width="1" height="1" fill="#EEC39A" />
<rect x="71" y="22" width="1" height="1" fill="#EEC39A" />
<rect x="72" y="22" width="1" height="1" fill="#EEC39A" />
<rect x="73" y="22" width="1" height="1" fill="#EEC39A" />
<rect x="74" y="22" width="1" height="1" fill="#EEC39A" />
<rect x="75" y="22" width="1" height="1" fill="#EEC39A" />
<rect x="76" y="22" width="1" height="1" fill="#EEC39A" />
<rect x="77" y="22" width="1" height="1" fill="#EEC39A" />
<rect x="78" y="22" width="1" height="1" fill="#EEC39A" />
<rect x="79" y="22" width="1" height="1" fill="#EEC39A" />
<rect x="80" y="22" width="1" height="1" fill="#EEC39A" />
<rect x="81" y="22" width="1" height="1" fill="#EEC39A" />
<rect x="82" y="22" width="1" height="1" fill="#EEC39A" />
<rect x="83" y="22" width="1" height="1" fill="#EEC39A" />
<rect x="84" y="22" width="1" height="1" fill="#EEC39A" />
<rect x="85" y="22" width="1" height="1" fill="#EEC39A" />
<rect x="86" y="22" width="1" height="1" fill="#EEC39A" />
<rect x="87" y="22" width="1" height="1" fill="#EEC39A" />
<rect x="88" y="22" width="1" height="1" fill="#EEC39A" />
<rect x="89" y="22" width="1" height="1" fill="#EEC39A" />
<rect x="90" y="22" width="1" height="1" fill="#663931" />
<rect x="91" y="22" width="1" height="1" fill="#EEC39A" />
<rect x="36" y="23" width="1" height="1" fill="#EEC39A" />
<rect x="37" y="23" width="1" height="1" fill="#EEC39A" />
<rect x="90" y="23" width="1" height="1" fill="#663931" />
<rect x="91" y="23" width="1" height="1" fill="#EEC39A" />
<rect x="34" y="24" width="1" height="1" fill="#EEC39A" />
<rect x="35" y="24" width="1" height="1" fill="#EEC39A" />
<rect x="89" y="24" width="1" height="1" fill="#EEC39A" />
<rect x="90" y="24" width="1" height="1" fill="#663931" />
<rect x="91" y="24" width="1" height="1" fill="#EEC39A" />
<rect x="32" y="25" width="1" height="1" fill="#EEC39A" />
<rect x="33" y="25" width="1" height="1" fill="#EEC39A" />
<rect x="87" y="25" width="1" height="1" fill="#EEC39A" />
<rect x="88" y="25" width="1" height="1" fill="#EEC39A" />
<rect x="90" y="25" width="1" height="1" fill="#663931" />
<rect x="91" y="25" width="1" height="1" fill="#EEC39A" />
<rect x="30" y="26" width="1" height="1" fill="#EEC39A" />
<rect x="31" y="26" width="1" height="1" fill="#EEC39A" />
<rect x="86" y="26" width="1" height="1" fill="#EEC39A" />
<rect x="87" y="26" width="1" height="1" fill="#663931" />
<rect x="88" y="26" width="1" height="1" fill="#663931" />
<rect x="89" y="26" width="1" height="1" fill="#663931" />
<rect x="90" y="26" width="1" height="1" fill="#663931" />
<rect x="91" y="26" width="1" height="1" fill="#EEC39A" />
<rect x="28" y="27" width="1" height="1" fill="#EEC39A" />
<rect x="29" y="27" width="1" height="1" fill="#EEC39A" />
<rect x="84" y="27" width="1" height="1" fill="#EEC39A" />
<rect x="85" y="27" width="1" height="1" fill="#EEC39A" />
<rect x="86" y="27" width="1" height="1" fill="#663931" />
<rect x="87" y="27" width="1" height="1" fill="#663931" />
<rect x="88" y="27" width="1" height="1" fill="#663931" />
<rect x="89" y="27" width="1" height="1" fill="#663931" />
<rect x="90" y="27" width="1" height="1" fill="#663931" />
<rect x="91" y="27" width="1" height="1" fill="#EEC39A" />
<rect x="27" y="28" width="1" height="1" fill="#EEC39A" />
<rect x="83" y="28" width="1" height="1" fill="#EEC39A" />
<rect x="84" y="28" width="1" height="1" fill="#663931" />
<rect x="85" y="28" width="1" height="1" fill="#663931" />
<rect x="86" y="28" width="1" height="1" fill="#663931" />
<rect x="87" y="28" width="1" height="1" fill="#663931" />
<rect x="88" y="28" width="1" height="1" fill="#663931" />
<rect x="89" y="28" width="1" height="1" fill="#663931" />
<rect x="90" y="28" width="1" height="1" fill="#663931" />
<rect x="91" y="28" width="1" height="1" fill="#EEC39A" />
<rect x="25" y="29" width="1" height="1" fill="#EEC39A" />
<rect x="26" y="29" width="1" height="1" fill="#EEC39A" />
<rect x="81" y="29" width="1" height="1" fill="#EEC39A" />
<rect x="82" y="29" width="1" height="1" fill="#EEC39A" />
<rect x="83" y="29" width="1" height="1" fill="#663931" />
<rect x="84" y="29" width="1" height="1" fill="#663931" />
<rect x="85" y="29" width="1" height="1" fill="#663931" />
<rect x="86" y="29" width="1" height="1" fill="#663931" />
<rect x="87" y="29" width="1" height="1" fill="#663931" />
<rect x="88" y="29" width="1" height="1" fill="#663931" />
<rect x="89" y="29" width="1" height="1" fill="#663931" />
<rect x="90" y="29" width="1" height="1" fill="#663931" />
<rect x="91" y="29" width="1" height="1" fill="#EEC39A" />
<rect x="23" y="30" width="1" height="1" fill="#EEC39A" />
<rect x="24" y="30" width="1" height="1" fill="#EEC39A" />
<rect x="79" y="30" width="1" height="1" fill="#EEC39A" />
<rect x="80" y="30" width="1" height="1" fill="#EEC39A" />
<rect x="82" y="30" width="1" height="1" fill="#663931" />
<rect x="83" y="30" width="1" height="1" fill="#663931" />
<rect x="84" y="30" width="1" height="1" fill="#663931" />
<rect x="85" y="30" width="1" height="1" fill="#663931" />
<rect x="86" y="30" width="1" height="1" fill="#663931" />
<rect x="87" y="30" width="1" height="1" fill="#663931" />
<rect x="88" y="30" width="1" height="1" fill="#663931" />
<rect x="89" y="30" width="1" height="1" fill="#663931" />
<rect x="90" y="30" width="1" height="1" fill="#663931" />
<rect x="91" y="30" width="1" height="1" fill="#EEC39A" />
<rect x="21" y="31" width="1" height="1" fill="#EEC39A" />
<rect x="22" y="31" width="1" height="1" fill="#EEC39A" />
<rect x="78" y="31" width="1" height="1" fill="#EEC39A" />
<rect x="80" y="31" width="1" height="1" fill="#663931" />
<rect x="81" y="31" width="1" height="1" fill="#663931" />
<rect x="82" y="31" width="1" height="1" fill="#663931" />
<rect x="83" y="31" width="1" height="1" fill="#663931" />
<rect x="84" y="31" width="1" height="1" fill="#663931" />
<rect x="85" y="31" width="1" height="1" fill="#663931" />
<rect x="86" y="31" width="1" height="1" fill="#663931" />
<rect x="87" y="31" width="1" height="1" fill="#663931" />
<rect x="88" y="31" width="1" height="1" fill="#663931" />
<rect x="89" y="31" width="1" height="1" fill="#663931" />
<rect x="90" y="31" width="1" height="1" fill="#663931" />
<rect x="91" y="31" width="1" height="1" fill="#EEC39A" />
<rect x="19" y="32" width="1" height="1" fill="#EEC39A" />
<rect x="20" y="32" width="1" height="1" fill="#EEC39A" />
<rect x="76" y="32" width="1" height="1" fill="#EEC39A" />
<rect x="77" y="32" width="1" height="1" fill="#EEC39A" />
<rect x="79" y="32" width="1" height="1" fill="#663931" />
<rect x="80" y="32" width="1" height="1" fill="#663931" />
<rect x="81" y="32" width="1" height="1" fill="#663931" />
<rect x="82" y="32" width="1" height="1" fill="#663931" />
<rect x="83" y="32" width="1" height="1" fill="#663931" />
<rect x="84" y="32" width="1" height="1" fill="#663931" />
<rect x="85" y="32" width="1" height="1" fill="#663931" />
<rect x="86" y="32" width="1" height="1" fill="#663931" />
<rect x="87" y="32" width="1" height="1" fill="#663931" />
<rect x="88" y="32" width="1" height="1" fill="#663931" />
<rect x="89" y="32" width="1" height="1" fill="#663931" />
<rect x="90" y="32" width="1" height="1" fill="#663931" />
<rect x="91" y="32" width="1" height="1" fill="#EEC39A" />
<rect x="16" y="33" width="1" height="1" fill="#EEC39A" />
<rect x="17" y="33" width="1" height="1" fill="#EEC39A" />
<rect x="18" y="33" width="1" height="1" fill="#EEC39A" />
<rect x="19" y="33" width="1" height="1" fill="#EEC39A" />
<rect x="20" y="33" width="1" height="1" fill="#EEC39A" />
<rect x="21" y="33" width="1" height="1" fill="#EEC39A" />
<rect x="22" y="33" width="1" height="1" fill="#EEC39A" />
<rect x="23" y="33" width="1" height="1" fill="#EEC39A" />
<rect x="24" y="33" width="1" height="1" fill="#EEC39A" />
<rect x="25" y="33" width="1" height="1" fill="#EEC39A" />
<rect x="26" y="33" width="1" height="1" fill="#EEC39A" />
<rect x="27" y="33" width="1" height="1" fill="#EEC39A" />
<rect x="28" y="33" width="1" height="1" fill="#EEC39A" />
<rect x="29" y="33" width="1" height="1" fill="#EEC39A" />
<rect x="30" y="33" width="1" height="1" fill="#EEC39A" />
<rect x="31" y="33" width="1" height="1" fill="#EEC39A" />
<rect x="32" y="33" width="1" height="1" fill="#EEC39A" />
<rect x="33" y="33" width="1" height="1" fill="#EEC39A" />
<rect x="34" y="33" width="1" height="1" fill="#EEC39A" />
<rect x="35" y="33" width="1" height="1" fill="#EEC39A" />
<rect x="36" y="33" width="1" height="1" fill="#EEC39A" />
<rect x="37" y="33" width="1" height="1" fill="#EEC39A" />
<rect x="38" y="33" width="1" height="1" fill="#EEC39A" />
<rect x="39" y="33" width="1" height="1" fill="#EEC39A" />
<rect x="40" y="33" width="1" height="1" fill="#EEC39A" />
<rect x="41" y="33" width="1" height="1" fill="#EEC39A" />
<rect x="42" y="33" width="1" height="1" fill="#EEC39A" />
<rect x="43" y="33" width="1" height="1" fill="#EEC39A" />
<rect x="44" y="33" width="1" height="1" fill="#EEC39A" />
<rect x="45" y="33" width="1" height="1" fill="#EEC39A" />
<rect x="46" y="33" width="1" height="1" fill="#EEC39A" />
<rect x="47" y="33" width="1" height="1" fill="#EEC39A" />
<rect x="48" y="33" width="1" height="1" fill="#EEC39A" />
<rect x="49" y="33" width="1" height="1" fill="#EEC39A" />
<rect x="50" y="33" width="1" height="1" fill="#EEC39A" />
<rect x="51" y="33" width="1" height="1" fill="#EEC39A" />
<rect x="52" y="33" width="1" height="1" fill="#EEC39A" />
<rect x="53" y="33" width="1" height="1" fill="#EEC39A" />
<rect x="54" y="33" width="1" height="1" fill="#EEC39A" />
<rect x="55" y="33" width="1" height="1" fill="#EEC39A" />
<rect x="56" y="33" width="1" height="1" fill="#EEC39A" />
<rect x="57" y="33" width="1" height="1" fill="#EEC39A" />
<rect x="58" y="33" width="1" height="1" fill="#EEC39A" />
<rect x="59" y="33" width="1" height="1" fill="#EEC39A" />
<rect x="60" y="33" width="1" height="1" fill="#EEC39A" />
<rect x="61" y="33" width="1" height="1" fill="#EEC39A" />
<rect x="62" y="33" width="1" height="1" fill="#EEC39A" />
<rect x="63" y="33" width="1" height="1" fill="#EEC39A" />
<rect x="64" y="33" width="1" height="1" fill="#EEC39A" />
<rect x="65" y="33" width="1" height="1" fill="#EEC39A" />
<rect x="66" y="33" width="1" height="1" fill="#EEC39A" />
<rect x="67" y="33" width="1" height="1" fill="#EEC39A" />
<rect x="68" y="33" width="1" height="1" fill="#EEC39A" />
<rect x="69" y="33" width="1" height="1" fill="#EEC39A" />
<rect x="70" y="33" width="1" height="1" fill="#EEC39A" />
<rect x="71" y="33" width="1" height="1" fill="#EEC39A" />
<rect x="72" y="33" width="1" height="1" fill="#EEC39A" />
<rect x="73" y="33" width="1" height="1" fill="#EEC39A" />
<rect x="74" y="33" width="1" height="1" fill="#EEC39A" />
<rect x="75" y="33" width="1" height="1" fill="#EEC39A" />
<rect x="77" y="33" width="1" height="1" fill="#663931" />
<rect x="78" y="33" width="1" height="1" fill="#663931" />
<rect x="79" y="33" width="1" height="1" fill="#663931" />
<rect x="80" y="33" width="1" height="1" fill="#663931" />
<rect x="81" y="33" width="1" height="1" fill="#663931" />
<rect x="82" y="33" width="1" height="1" fill="#663931" />
<rect x="83" y="33" width="1" height="1" fill="#663931" />
<rect x="84" y="33" width="1" height="1" fill="#663931" />
<rect x="85" y="33" width="1" height="1" fill="#663931" />
<rect x="86" y="33" width="1" height="1" fill="#663931" />
<rect x="87" y="33" width="1" height="1" fill="#663931" />
<rect x="88" y="33" width="1" height="1" fill="#663931" />
<rect x="89" y="33" width="1" height="1" fill="#663931" />
<rect x="90" y="33" width="1" height="1" fill="#663931" />
<rect x="91" y="33" width="1" height="1" fill="#EEC39A" />
<rect x="16" y="34" width="1" height="1" fill="#EEC39A" />
<rect x="73" y="34" width="1" height="1" fill="#EEC39A" />
<rect x="74" y="34" width="1" height="1" fill="#EEC39A" />
<rect x="77" y="34" width="1" height="1" fill="#663931" />
<rect x="78" y="34" width="1" height="1" fill="#663931" />
<rect x="79" y="34" width="1" height="1" fill="#663931" />
<rect x="80" y="34" width="1" height="1" fill="#663931" />
<rect x="81" y="34" width="1" height="1" fill="#663931" />
<rect x="82" y="34" width="1" height="1" fill="#663931" />
<rect x="83" y="34" width="1" height="1" fill="#663931" />
<rect x="84" y="34" width="1" height="1" fill="#663931" />
<rect x="85" y="34" width="1" height="1" fill="#663931" />
<rect x="86" y="34" width="1" height="1" fill="#663931" />
<rect x="87" y="34" width="1" height="1" fill="#663931" />
<rect x="88" y="34" width="1" height="1" fill="#663931" />
<rect x="89" y="34" width="1" height="1" fill="#663931" />
<rect x="90" y="34" width="1" height="1" fill="#663931" />
<rect x="91" y="34" width="1" height="1" fill="#EEC39A" />
<rect x="16" y="35" width="1" height="1" fill="#EEC39A" />
<rect x="72" y="35" width="1" height="1" fill="#EEC39A" />
<rect x="74" y="35" width="1" height="1" fill="#EEC39A" />
<rect x="75" y="35" width="1" height="1" fill="#663931" />
<rect x="76" y="35" width="1" height="1" fill="#663931" />
<rect x="77" y="35" width="1" height="1" fill="#663931" />
<rect x="78" y="35" width="1" height="1" fill="#663931" />
<rect x="79" y="35" width="1" height="1" fill="#663931" />
<rect x="80" y="35" width="1" height="1" fill="#663931" />
<rect x="81" y="35" width="1" height="1" fill="#663931" />
<rect x="82" y="35" width="1" height="1" fill="#663931" />
<rect x="83" y="35" width="1" height="1" fill="#663931" />
<rect x="84" y="35" width="1" height="1" fill="#663931" />
<rect x="85" y="35" width="1" height="1" fill="#663931" />
<rect x="86" y="35" width="1" height="1" fill="#663931" />
<rect x="87" y="35" width="1" height="1" fill="#663931" />
<rect x="88" y="35" width="1" height="1" fill="#663931" />
<rect x="89" y="35" width="1" height="1" fill="#663931" />
<rect x="90" y="35" width="1" height="1" fill="#663931" />
<rect x="91" y="35" width="1" height="1" fill="#EEC39A" />
<rect x="16" y="36" width="1" height="1" fill="#EEC39A" />
<rect x="74" y="36" width="1" height="1" fill="#EEC39A" />
<rect x="75" y="36" width="1" height="1" fill="#663931" />
<rect x="76" y="36" width="1" height="1" fill="#663931" />
<rect x="77" y="36" width="1" height="1" fill="#663931" />
<rect x="78" y="36" width="1" height="1" fill="#663931" />
<rect x="79" y="36" width="1" height="1" fill="#663931" />
<rect x="80" y="36" width="1" height="1" fill="#663931" />
<rect x="81" y="36" width="1" height="1" fill="#663931" />
<rect x="82" y="36" width="1" height="1" fill="#663931" />
<rect x="83" y="36" width="1" height="1" fill="#663931" />
<rect x="84" y="36" width="1" height="1" fill="#663931" />
<rect x="85" y="36" width="1" height="1" fill="#663931" />
<rect x="86" y="36" width="1" height="1" fill="#663931" />
<rect x="87" y="36" width="1" height="1" fill="#663931" />
<rect x="88" y="36" width="1" height="1" fill="#663931" />
<rect x="89" y="36" width="1" height="1" fill="#663931" />
<rect x="90" y="36" width="1" height="1" fill="#663931" />
<rect x="91" y="36" width="1" height="1" fill="#EEC39A" />
<rect x="16" y="37" width="1" height="1" fill="#EEC39A" />
<rect x="74" y="37" width="1" height="1" fill="#EEC39A" />
<rect x="75" y="37" width="1" height="1" fill="#663931" />
<rect x="76" y="37" width="1" height="1" fill="#663931" />
<rect x="77" y="37" width="1" height="1" fill="#663931" />
<rect x="78" y="37" width="1" height="1" fill="#663931" />
<rect x="79" y="37" width="1" height="1" fill="#663931" />
<rect x="80" y="37" width="1" height="1" fill="#663931" />
<rect x="81" y="37" width="1" height="1" fill="#663931" />
<rect x="82" y="37" width="1" height="1" fill="#663931" />
<rect x="83" y="37" width="1" height="1" fill="#663931" />
<rect x="84" y="37" width="1" height="1" fill="#663931" />
<rect x="85" y="37" width="1" height="1" fill="#663931" />
<rect x="86" y="37" width="1" height="1" fill="#663931" />
<rect x="87" y="37" width="1" height="1" fill="#663931" />
<rect x="88" y="37" width="1" height="1" fill="#663931" />
<rect x="89" y="37" width="1" height="1" fill="#663931" />
<rect x="90" y="37" width="1" height="1" fill="#663931" />
<rect x="91" y="37" width="1" height="1" fill="#EEC39A" />
<rect x="16" y="38" width="1" height="1" fill="#EEC39A" />
<rect x="74" y="38" width="1" height="1" fill="#EEC39A" />
<rect x="75" y="38" width="1" height="1" fill="#663931" />
<rect x="76" y="38" width="1" height="1" fill="#663931" />
<rect x="77" y="38" width="1" height="1" fill="#663931" />
<rect x="78" y="38" width="1" height="1" fill="#663931" />
<rect x="79" y="38" width="1" height="1" fill="#663931" />
<rect x="80" y="38" width="1" height="1" fill="#663931" />
<rect x="81" y="38" width="1" height="1" fill="#663931" />
<rect x="82" y="38" width="1" height="1" fill="#663931" />
<rect x="83" y="38" width="1" height="1" fill="#663931" />
<rect x="84" y="38" width="1" height="1" fill="#663931" />
<rect x="85" y="38" width="1" height="1" fill="#663931" />
<rect x="86" y="38" width="1" height="1" fill="#663931" />
<rect x="87" y="38" width="1" height="1" fill="#663931" />
<rect x="88" y="38" width="1" height="1" fill="#663931" />
<rect x="89" y="38" width="1" height="1" fill="#663931" />
<rect x="90" y="38" width="1" height="1" fill="#663931" />
<rect x="91" y="38" width="1" height="1" fill="#EEC39A" />
<rect x="16" y="39" width="1" height="1" fill="#EEC39A" />
<rect x="74" y="39" width="1" height="1" fill="#EEC39A" />
<rect x="75" y="39" width="1" height="1" fill="#663931" />
<rect x="76" y="39" width="1" height="1" fill="#663931" />
<rect x="77" y="39" width="1" height="1" fill="#663931" />
<rect x="78" y="39" width="1" height="1" fill="#663931" />
<rect x="79" y="39" width="1" height="1" fill="#663931" />
<rect x="80" y="39" width="1" height="1" fill="#663931" />
<rect x="81" y="39" width="1" height="1" fill="#663931" />
<rect x="82" y="39" width="1" height="1" fill="#663931" />
<rect x="83" y="39" width="1" height="1" fill="#663931" />
<rect x="84" y="39" width="1" height="1" fill="#663931" />
<rect x="85" y="39" width="1" height="1" fill="#663931" />
<rect x="86" y="39" width="1" height="1" fill="#663931" />
<rect x="87" y="39" width="1" height="1" fill="#663931" />
<rect x="88" y="39" width="1" height="1" fill="#663931" />
<rect x="89" y="39" width="1" height="1" fill="#663931" />
<rect x="90" y="39" width="1" height="1" fill="#663931" />
<rect x="91" y="39" width="1" height="1" fill="#EEC39A" />
<rect x="16" y="40" width="1" height="1" fill="#EEC39A" />
<rect x="74" y="40" width="1" height="1" fill="#EEC39A" />
<rect x="75" y="40" width="1" height="1" fill="#663931" />
<rect x="76" y="40" width="1" height="1" fill="#663931" />
<rect x="77" y="40" width="1" height="1" fill="#663931" />
<rect x="78" y="40" width="1" height="1" fill="#663931" />
<rect x="79" y="40" width="1" height="1" fill="#663931" />
<rect x="80" y="40" width="1" height="1" fill="#663931" />
<rect x="81" y="40" width="1" height="1" fill="#663931" />
<rect x="82" y="40" width="1" height="1" fill="#663931" />
<rect x="83" y="40" width="1" height="1" fill="#663931" />
<rect x="84" y="40" width="1" height="1" fill="#663931" />
<rect x="85" y="40" width="1" height="1" fill="#663931" />
<rect x="86" y="40" width="1" height="1" fill="#663931" />
<rect x="87" y="40" width="1" height="1" fill="#663931" />
<rect x="88" y="40" width="1" height="1" fill="#663931" />
<rect x="89" y="40" width="1" height="1" fill="#663931" />
<rect x="90" y="40" width="1" height="1" fill="#663931" />
<rect x="91" y="40" width="1" height="1" fill="#EEC39A" />
<rect x="16" y="41" width="1" height="1" fill="#EEC39A" />
<rect x="74" y="41" width="1" height="1" fill="#EEC39A" />
<rect x="75" y="41" width="1" height="1" fill="#663931" />
<rect x="76" y="41" width="1" height="1" fill="#663931" />
<rect x="77" y="41" width="1" height="1" fill="#663931" />
<rect x="78" y="41" width="1" height="1" fill="#663931" />
<rect x="79" y="41" width="1" height="1" fill="#663931" />
<rect x="80" y="41" width="1" height="1" fill="#663931" />
<rect x="81" y="41" width="1" height="1" fill="#663931" />
<rect x="82" y="41" width="1" height="1" fill="#663931" />
<rect x="83" y="41" width="1" height="1" fill="#663931" />
<rect x="84" y="41" width="1" height="1" fill="#663931" />
<rect x="85" y="41" width="1" height="1" fill="#663931" />
<rect x="86" y="41" width="1" height="1" fill="#663931" />
<rect x="87" y="41" width="1" height="1" fill="#663931" />
<rect x="88" y="41" width="1" height="1" fill="#663931" />
<rect x="89" y="41" width="1" height="1" fill="#663931" />
<rect x="90" y="41" width="1" height="1" fill="#663931" />
<rect x="91" y="41" width="1" height="1" fill="#EEC39A" />
<rect x="16" y="42" width="1" height="1" fill="#EEC39A" />
<rect x="74" y="42" width="1" height="1" fill="#EEC39A" />
<rect x="75" y="42" width="1" height="1" fill="#663931" />
<rect x="76" y="42" width="1" height="1" fill="#663931" />
<rect x="77" y="42" width="1" height="1" fill="#663931" />
<rect x="78" y="42" width="1" height="1" fill="#663931" />
<rect x="79" y="42" width="1" height="1" fill="#663931" />
<rect x="80" y="42" width="1" height="1" fill="#663931" />
<rect x="81" y="42" width="1" height="1" fill="#663931" />
<rect x="82" y="42" width="1" height="1" fill="#663931" />
<rect x="83" y="42" width="1" height="1" fill="#663931" />
<rect x="84" y="42" width="1" height="1" fill="#663931" />
<rect x="85" y="42" width="1" height="1" fill="#663931" />
<rect x="86" y="42" width="1" height="1" fill="#663931" />
<rect x="87" y="42" width="1" height="1" fill="#663931" />
<rect x="88" y="42" width="1" height="1" fill="#663931" />
<rect x="89" y="42" width="1" height="1" fill="#663931" />
<rect x="90" y="42" width="1" height="1" fill="#663931" />
<rect x="91" y="42" width="1" height="1" fill="#EEC39A" />
<rect x="16" y="43" width="1" height="1" fill="#EEC39A" />
<rect x="74" y="43" width="1" height="1" fill="#EEC39A" />
<rect x="75" y="43" width="1" height="1" fill="#663931" />
<rect x="76" y="43" width="1" height="1" fill="#663931" />
<rect x="77" y="43" width="1" height="1" fill="#663931" />
<rect x="78" y="43" width="1" height="1" fill="#663931" />
<rect x="79" y="43" width="1" height="1" fill="#663931" />
<rect x="80" y="43" width="1" height="1" fill="#663931" />
<rect x="81" y="43" width="1" height="1" fill="#663931" />
<rect x="82" y="43" width="1" height="1" fill="#663931" />
<rect x="83" y="43" width="1" height="1" fill="#663931" />
<rect x="84" y="43" width="1" height="1" fill="#663931" />
<rect x="85" y="43" width="1" height="1" fill="#663931" />
<rect x="86" y="43" width="1" height="1" fill="#663931" />
<rect x="87" y="43" width="1" height="1" fill="#663931" />
<rect x="88" y="43" width="1" height="1" fill="#663931" />
<rect x="89" y="43" width="1" height="1" fill="#663931" />
<rect x="90" y="43" width="1" height="1" fill="#663931" />
<rect x="91" y="43" width="1" height="1" fill="#EEC39A" />
<rect x="16" y="44" width="1" height="1" fill="#EEC39A" />
<rect x="74" y="44" width="1" height="1" fill="#EEC39A" />
<rect x="75" y="44" width="1" height="1" fill="#663931" />
<rect x="76" y="44" width="1" height="1" fill="#663931" />
<rect x="77" y="44" width="1" height="1" fill="#663931" />
<rect x="78" y="44" width="1" height="1" fill="#663931" />
<rect x="79" y="44" width="1" height="1" fill="#663931" />
<rect x="80" y="44" width="1" height="1" fill="#663931" />
<rect x="81" y="44" width="1" height="1" fill="#663931" />
<rect x="82" y="44" width="1" height="1" fill="#663931" />
<rect x="83" y="44" width="1" height="1" fill="#663931" />
<rect x="84" y="44" width="1" height="1" fill="#663931" />
<rect x="85" y="44" width="1" height="1" fill="#663931" />
<rect x="86" y="44" width="1" height="1" fill="#663931" />
<rect x="87" y="44" width="1" height="1" fill="#663931" />
<rect x="88" y="44" width="1" height="1" fill="#663931" />
<rect x="89" y="44" width="1" height="1" fill="#663931" />
<rect x="90" y="44" width="1" height="1" fill="#663931" />
<rect x="91" y="44" width="1" height="1" fill="#EEC39A" />
<rect x="16" y="45" width="1" height="1" fill="#EEC39A" />
<rect x="74" y="45" width="1" height="1" fill="#EEC39A" />
<rect x="75" y="45" width="1" height="1" fill="#663931" />
<rect x="76" y="45" width="1" height="1" fill="#663931" />
<rect x="77" y="45" width="1" height="1" fill="#663931" />
<rect x="78" y="45" width="1" height="1" fill="#663931" />
<rect x="79" y="45" width="1" height="1" fill="#663931" />
<rect x="80" y="45" width="1" height="1" fill="#663931" />
<rect x="81" y="45" width="1" height="1" fill="#663931" />
<rect x="82" y="45" width="1" height="1" fill="#663931" />
<rect x="83" y="45" width="1" height="1" fill="#663931" />
<rect x="84" y="45" width="1" height="1" fill="#663931" />
<rect x="85" y="45" width="1" height="1" fill="#663931" />
<rect x="86" y="45" width="1" height="1" fill="#663931" />
<rect x="87" y="45" width="1" height="1" fill="#663931" />
<rect x="88" y="45" width="1" height="1" fill="#663931" />
<rect x="89" y="45" width="1" height="1" fill="#663931" />
<rect x="90" y="45" width="1" height="1" fill="#663931" />
<rect x="91" y="45" width="1" height="1" fill="#EEC39A" />
<rect x="16" y="46" width="1" height="1" fill="#EEC39A" />
<rect x="74" y="46" width="1" height="1" fill="#EEC39A" />
<rect x="75" y="46" width="1" height="1" fill="#663931" />
<rect x="76" y="46" width="1" height="1" fill="#663931" />
<rect x="77" y="46" width="1" height="1" fill="#663931" />
<rect x="78" y="46" width="1" height="1" fill="#663931" />
<rect x="79" y="46" width="1" height="1" fill="#663931" />
<rect x="80" y="46" width="1" height="1" fill="#663931" />
<rect x="81" y="46" width="1" height="1" fill="#663931" />
<rect x="82" y="46" width="1" height="1" fill="#663931" />
<rect x="83" y="46" width="1" height="1" fill="#663931" />
<rect x="84" y="46" width="1" height="1" fill="#663931" />
<rect x="85" y="46" width="1" height="1" fill="#663931" />
<rect x="86" y="46" width="1" height="1" fill="#663931" />
<rect x="87" y="46" width="1" height="1" fill="#663931" />
<rect x="88" y="46" width="1" height="1" fill="#663931" />
<rect x="89" y="46" width="1" height="1" fill="#663931" />
<rect x="90" y="46" width="1" height="1" fill="#663931" />
<rect x="91" y="46" width="1" height="1" fill="#EEC39A" />
<rect x="16" y="47" width="1" height="1" fill="#EEC39A" />
<rect x="74" y="47" width="1" height="1" fill="#EEC39A" />
<rect x="75" y="47" width="1" height="1" fill="#663931" />
<rect x="76" y="47" width="1" height="1" fill="#663931" />
<rect x="77" y="47" width="1" height="1" fill="#663931" />
<rect x="78" y="47" width="1" height="1" fill="#663931" />
<rect x="79" y="47" width="1" height="1" fill="#663931" />
<rect x="80" y="47" width="1" height="1" fill="#663931" />
<rect x="81" y="47" width="1" height="1" fill="#663931" />
<rect x="82" y="47" width="1" height="1" fill="#663931" />
<rect x="83" y="47" width="1" height="1" fill="#663931" />
<rect x="84" y="47" width="1" height="1" fill="#663931" />
<rect x="85" y="47" width="1" height="1" fill="#663931" />
<rect x="86" y="47" width="1" height="1" fill="#663931" />
<rect x="87" y="47" width="1" height="1" fill="#663931" />
<rect x="88" y="47" width="1" height="1" fill="#663931" />
<rect x="89" y="47" width="1" height="1" fill="#663931" />
<rect x="90" y="47" width="1" height="1" fill="#663931" />
<rect x="91" y="47" width="1" height="1" fill="#EEC39A" />
<rect x="16" y="48" width="1" height="1" fill="#EEC39A" />
<rect x="74" y="48" width="1" height="1" fill="#EEC39A" />
<rect x="75" y="48" width="1" height="1" fill="#663931" />
<rect x="76" y="48" width="1" height="1" fill="#663931" />
<rect x="77" y="48" width="1" height="1" fill="#663931" />
<rect x="78" y="48" width="1" height="1" fill="#663931" />
<rect x="79" y="48" width="1" height="1" fill="#663931" />
<rect x="80" y="48" width="1" height="1" fill="#663931" />
<rect x="81" y="48" width="1" height="1" fill="#663931" />
<rect x="82" y="48" width="1" height="1" fill="#663931" />
<rect x="83" y="48" width="1" height="1" fill="#663931" />
<rect x="84" y="48" width="1" height="1" fill="#663931" />
<rect x="85" y="48" width="1" height="1" fill="#663931" />
<rect x="86" y="48" width="1" height="1" fill="#663931" />
<rect x="87" y="48" width="1" height="1" fill="#663931" />
<rect x="88" y="48" width="1" height="1" fill="#663931" />
<rect x="89" y="48" width="1" height="1" fill="#663931" />
<rect x="90" y="48" width="1" height="1" fill="#663931" />
<rect x="91" y="48" width="1" height="1" fill="#EEC39A" />
<rect x="16" y="49" width="1" height="1" fill="#EEC39A" />
<rect x="74" y="49" width="1" height="1" fill="#EEC39A" />
<rect x="75" y="49" width="1" height="1" fill="#663931" />
<rect x="76" y="49" width="1" height="1" fill="#663931" />
<rect x="77" y="49" width="1" height="1" fill="#663931" />
<rect x="78" y="49" width="1" height="1" fill="#663931" />
<rect x="79" y="49" width="1" height="1" fill="#663931" />
<rect x="80" y="49" width="1" height="1" fill="#663931" />
<rect x="81" y="49" width="1" height="1" fill="#663931" />
<rect x="82" y="49" width="1" height="1" fill="#663931" />
<rect x="83" y="49" width="1" height="1" fill="#663931" />
<rect x="84" y="49" width="1" height="1" fill="#663931" />
<rect x="85" y="49" width="1" height="1" fill="#663931" />
<rect x="86" y="49" width="1" height="1" fill="#663931" />
<rect x="87" y="49" width="1" height="1" fill="#663931" />
<rect x="88" y="49" width="1" height="1" fill="#663931" />
<rect x="89" y="49" width="1" height="1" fill="#663931" />
<rect x="91" y="49" width="1" height="1" fill="#EEC39A" />
<rect x="16" y="50" width="1" height="1" fill="#EEC39A" />
<rect x="74" y="50" width="1" height="1" fill="#EEC39A" />
<rect x="75" y="50" width="1" height="1" fill="#663931" />
<rect x="76" y="50" width="1" height="1" fill="#663931" />
<rect x="77" y="50" width="1" height="1" fill="#663931" />
<rect x="78" y="50" width="1" height="1" fill="#663931" />
<rect x="79" y="50" width="1" height="1" fill="#663931" />
<rect x="80" y="50" width="1" height="1" fill="#663931" />
<rect x="81" y="50" width="1" height="1" fill="#663931" />
<rect x="82" y="50" width="1" height="1" fill="#663931" />
<rect x="83" y="50" width="1" height="1" fill="#663931" />
<rect x="84" y="50" width="1" height="1" fill="#663931" />
<rect x="85" y="50" width="1" height="1" fill="#663931" />
<rect x="86" y="50" width="1" height="1" fill="#663931" />
<rect x="87" y="50" width="1" height="1" fill="#663931" />
<rect x="88" y="50" width="1" height="1" fill="#EEC39A" />
<rect x="16" y="51" width="1" height="1" fill="#EEC39A" />
<rect x="74" y="51" width="1" height="1" fill="#EEC39A" />
<rect x="75" y="51" width="1" height="1" fill="#663931" />
<rect x="76" y="51" width="1" height="1" fill="#663931" />
<rect x="77" y="51" width="1" height="1" fill="#663931" />
<rect x="78" y="51" width="1" height="1" fill="#663931" />
<rect x="79" y="51" width="1" height="1" fill="#663931" />
<rect x="80" y="51" width="1" height="1" fill="#663931" />
<rect x="81" y="51" width="1" height="1" fill="#663931" />
<rect x="82" y="51" width="1" height="1" fill="#663931" />
<rect x="83" y="51" width="1" height="1" fill="#663931" />
<rect x="84" y="51" width="1" height="1" fill="#663931" />
<rect x="85" y="51" width="1" height="1" fill="#663931" />
<rect x="86" y="51" width="1" height="1" fill="#663931" />
<rect x="87" y="51" width="1" height="1" fill="#EEC39A" />
<rect x="16" y="52" width="1" height="1" fill="#EEC39A" />
<rect x="74" y="52" width="1" height="1" fill="#EEC39A" />
<rect x="75" y="52" width="1" height="1" fill="#663931" />
<rect x="76" y="52" width="1" height="1" fill="#663931" />
<rect x="77" y="52" width="1" height="1" fill="#663931" />
<rect x="78" y="52" width="1" height="1" fill="#663931" />
<rect x="79" y="52" width="1" height="1" fill="#663931" />
<rect x="80" y="52" width="1" height="1" fill="#663931" />
<rect x="81" y="52" width="1" height="1" fill="#663931" />
<rect x="82" y="52" width="1" height="1" fill="#663931" />
<rect x="83" y="52" width="1" height="1" fill="#663931" />
<rect x="84" y="52" width="1" height="1" fill="#663931" />
<rect x="85" y="52" width="1" height="1" fill="#663931" />
<rect x="86" y="52" width="1" height="1" fill="#EEC39A" />
<rect x="16" y="53" width="1" height="1" fill="#EEC39A" />
<rect x="74" y="53" width="1" height="1" fill="#EEC39A" />
<rect x="75" y="53" width="1" height="1" fill="#663931" />
<rect x="76" y="53" width="1" height="1" fill="#663931" />
<rect x="77" y="53" width="1" height="1" fill="#663931" />
<rect x="78" y="53" width="1" height="1" fill="#663931" />
<rect x="79" y="53" width="1" height="1" fill="#663931" />
<rect x="80" y="53" width="1" height="1" fill="#663931" />
<rect x="81" y="53" width="1" height="1" fill="#663931" />
<rect x="82" y="53" width="1" height="1" fill="#663931" />
<rect x="83" y="53" width="1" height="1" fill="#663931" />
<rect x="84" y="53" width="1" height="1" fill="#663931" />
<rect x="85" y="53" width="1" height="1" fill="#EEC39A" />
<rect x="16" y="54" width="1" height="1" fill="#EEC39A" />
<rect x="74" y="54" width="1" height="1" fill="#EEC39A" />
<rect x="75" y="54" width="1" height="1" fill="#663931" />
<rect x="76" y="54" width="1" height="1" fill="#663931" />
<rect x="77" y="54" width="1" height="1" fill="#663931" />
<rect x="78" y="54" width="1" height="1" fill="#663931" />
<rect x="79" y="54" width="1" height="1" fill="#663931" />
<rect x="80" y="54" width="1" height="1" fill="#663931" />
<rect x="81" y="54" width="1" height="1" fill="#663931" />
<rect x="82" y="54" width="1" height="1" fill="#663931" />
<rect x="83" y="54" width="1" height="1" fill="#663931" />
<rect x="84" y="54" width="1" height="1" fill="#EEC39A" />
<rect x="16" y="55" width="1" height="1" fill="#EEC39A" />
<rect x="74" y="55" width="1" height="1" fill="#EEC39A" />
<rect x="75" y="55" width="1" height="1" fill="#663931" />
<rect x="76" y="55" width="1" height="1" fill="#663931" />
<rect x="77" y="55" width="1" height="1" fill="#663931" />
<rect x="78" y="55" width="1" height="1" fill="#663931" />
<rect x="79" y="55" width="1" height="1" fill="#663931" />
<rect x="80" y="55" width="1" height="1" fill="#663931" />
<rect x="81" y="55" width="1" height="1" fill="#663931" />
<rect x="82" y="55" width="1" height="1" fill="#663931" />
<rect x="83" y="55" width="1" height="1" fill="#EEC39A" />
<rect x="16" y="56" width="1" height="1" fill="#EEC39A" />
<rect x="74" y="56" width="1" height="1" fill="#EEC39A" />
<rect x="75" y="56" width="1" height="1" fill="#663931" />
<rect x="76" y="56" width="1" height="1" fill="#663931" />
<rect x="77" y="56" width="1" height="1" fill="#663931" />
<rect x="78" y="56" width="1" height="1" fill="#663931" />
<rect x="79" y="56" width="1" height="1" fill="#663931" />
<rect x="80" y="56" width="1" height="1" fill="#663931" />
<rect x="81" y="56" width="1" height="1" fill="#EEC39A" />
<rect x="16" y="57" width="1" height="1" fill="#EEC39A" />
<rect x="74" y="57" width="1" height="1" fill="#EEC39A" />
<rect x="75" y="57" width="1" height="1" fill="#663931" />
<rect x="76" y="57" width="1" height="1" fill="#663931" />
<rect x="77" y="57" width="1" height="1" fill="#663931" />
<rect x="78" y="57" width="1" height="1" fill="#663931" />
<rect x="79" y="57" width="1" height="1" fill="#663931" />
<rect x="80" y="57" width="1" height="1" fill="#EEC39A" />
<rect x="16" y="58" width="1" height="1" fill="#EEC39A" />
<rect x="74" y="58" width="1" height="1" fill="#EEC39A" />
<rect x="75" y="58" width="1" height="1" fill="#663931" />
<rect x="76" y="58" width="1" height="1" fill="#663931" />
<rect x="77" y="58" width="1" height="1" fill="#663931" />
<rect x="78" y="58" width="1" height="1" fill="#663931" />
<rect x="79" y="58" width="1" height="1" fill="#EEC39A" />
<rect x="16" y="59" width="1" height="1" fill="#EEC39A" />
<rect x="74" y="59" width="1" height="1" fill="#EEC39A" />
<rect x="75" y="59" width="1" height="1" fill="#663931" />
<rect x="76" y="59" width="1" height="1" fill="#663931" />
<rect x="77" y="59" width="1" height="1" fill="#663931" />
<rect x="78" y="59" width="1" height="1" fill="#EEC39A" />
<rect x="16" y="60" width="1" height="1" fill="#EEC39A" />
<rect x="74" y="60" width="1" height="1" fill="#EEC39A" />
<rect x="75" y="60" width="1" height="1" fill="#663931" />
<rect x="76" y="60" width="1" height="1" fill="#663931" />
<rect x="77" y="60" width="1" height="1" fill="#EEC39A" />
<rect x="16" y="61" width="1" height="1" fill="#EEC39A" />
<rect x="74" y="61" width="1" height="1" fill="#663931" />
<rect x="75" y="61" width="1" height="1" fill="#663931" />
<rect x="76" y="61" width="1" height="1" fill="#EEC39A" />
<rect x="16" y="62" width="1" height="1" fill="#EEC39A" />
<rect x="74" y="62" width="1" height="1" fill="#663931" />
<rect x="75" y="62" width="1" height="1" fill="#663931" />
<rect x="16" y="63" width="1" height="1" fill="#EEC39A" />
<rect x="17" y="63" width="1" height="1" fill="#EEC39A" />
<rect x="18" y="63" width="1" height="1" fill="#EEC39A" />
<rect x="19" y="63" width="1" height="1" fill="#EEC39A" />
<rect x="20" y="63" width="1" height="1" fill="#EEC39A" />
<rect x="21" y="63" width="1" height="1" fill="#EEC39A" />
<rect x="22" y="63" width="1" height="1" fill="#EEC39A" />
<rect x="23" y="63" width="1" height="1" fill="#EEC39A" />
<rect x="24" y="63" width="1" height="1" fill="#EEC39A" />
<rect x="25" y="63" width="1" height="1" fill="#EEC39A" />
<rect x="26" y="63" width="1" height="1" fill="#EEC39A" />
<rect x="27" y="63" width="1" height="1" fill="#EEC39A" />
<rect x="28" y="63" width="1" height="1" fill="#EEC39A" />
<rect x="29" y="63" width="1" height="1" fill="#EEC39A" />
<rect x="30" y="63" width="1" height="1" fill="#EEC39A" />
<rect x="31" y="63" width="1" height="1" fill="#EEC39A" />
<rect x="32" y="63" width="1" height="1" fill="#EEC39A" />
<rect x="33" y="63" width="1" height="1" fill="#EEC39A" />
<rect x="34" y="63" width="1" height="1" fill="#EEC39A" />
<rect x="35" y="63" width="1" height="1" fill="#EEC39A" />
<rect x="36" y="63" width="1" height="1" fill="#EEC39A" />
<rect x="37" y="63" width="1" height="1" fill="#EEC39A" />
<rect x="38" y="63" width="1" height="1" fill="#EEC39A" />
<rect x="39" y="63" width="1" height="1" fill="#EEC39A" />
<rect x="40" y="63" width="1" height="1" fill="#EEC39A" />
<rect x="41" y="63" width="1" height="1" fill="#EEC39A" />
<rect x="42" y="63" width="1" height="1" fill="#EEC39A" />
<rect x="43" y="63" width="1" height="1" fill="#EEC39A" />
<rect x="44" y="63" width="1" height="1" fill="#EEC39A" />
<rect x="45" y="63" width="1" height="1" fill="#EEC39A" />
<rect x="46" y="63" width="1" height="1" fill="#EEC39A" />
<rect x="47" y="63" width="1" height="1" fill="#EEC39A" />
<rect x="48" y="63" width="1" height="1" fill="#EEC39A" />
<rect x="49" y="63" width="1" height="1" fill="#EEC39A" />
<rect x="50" y="63" width="1" height="1" fill="#EEC39A" />
<rect x="51" y="63" width="1" height="1" fill="#EEC39A" />
<rect x="52" y="63" width="1" height="1" fill="#EEC39A" />
<rect x="53" y="63" width="1" height="1" fill="#EEC39A" />
<rect x="54" y="63" width="1" height="1" fill="#EEC39A" />
<rect x="55" y="63" width="1" height="1" fill="#EEC39A" />
<rect x="56" y="63" width="1" height="1" fill="#EEC39A" />
<rect x="57" y="63" width="1" height="1" fill="#EEC39A" />
<rect x="58" y="63" width="1" height="1" fill="#EEC39A" />
<rect x="59" y="63" width="1" height="1" fill="#EEC39A" />
<rect x="60" y="63" width="1" height="1" fill="#EEC39A" />
<rect x="61" y="63" width="1" height="1" fill="#EEC39A" />
<rect x="62" y="63" width="1" height="1" fill="#EEC39A" />
<rect x="63" y="63" width="1" height="1" fill="#EEC39A" />
<rect x="64" y="63" width="1" height="1" fill="#EEC39A" />
<rect x="65" y="63" width="1" height="1" fill="#EEC39A" />
<rect x="66" y="63" width="1" height="1" fill="#EEC39A" />
<rect x="67" y="63" width="1" height="1" fill="#EEC39A" />
<rect x="68" y="63" width="1" height="1" fill="#EEC39A" />
<rect x="69" y="63" width="1" height="1" fill="#EEC39A" />
<rect x="70" y="63" width="1" height="1" fill="#EEC39A" />
<rect x="71" y="63" width="1" height="1" fill="#EEC39A" />
<rect x="72" y="63" width="1" height="1" fill="#EEC39A" />
<rect x="73" y="63" width="1" height="1" fill="#EEC39A" />
<rect x="74" y="63" width="1" height="1" fill="#663931" />
</svg>